<svg width="34" height="34" viewBox="0 0 34 34" fill="none" xmlns="http://www.w3.org/2000/svg">
<path d="M30.457 7.92809C30.2236 7.57778 29.7512 7.48348 29.4022 7.71809C29.053 7.95239 28.9594 8.42661 29.193 8.77692C30.8164 11.2129 31.6745 14.0563 31.6745 17C31.6745 25.1658 25.0561 31.8092 16.921 31.8092C8.78591 31.8092 2.16752 25.1658 2.16752 17C2.16752 8.83426 8.78591 2.1909 16.921 2.1909C20.8017 2.1909 24.4662 3.69106 27.2392 6.41504C27.5395 6.71004 28.0211 6.70473 28.3146 6.4034C28.6085 6.10215 28.6032 5.61879 28.303 5.32395C25.244 2.31903 21.2019 0.664185 16.921 0.664185C7.9472 0.664185 0.646545 7.99239 0.646545 17C0.646545 26.0077 7.9472 33.3359 16.921 33.3359C25.8948 33.3359 33.1954 26.0077 33.1954 17C33.1954 13.7531 32.2485 10.6159 30.457 7.92809Z" fill="#F88500"/>
</svg>
