<svg width="16" height="13" viewBox="0 0 16 13" fill="none" xmlns="http://www.w3.org/2000/svg">
<path d="M14.3554 3.24102C14.3655 3.38314 14.3655 3.5253 14.3655 3.66742C14.3655 8.00244 11.066 12.9974 5.03555 12.9974C3.17767 12.9974 1.45179 12.4593 0 11.5253C0.26397 11.5558 0.517752 11.5659 0.791878 11.5659C2.32485 11.5659 3.73605 11.0482 4.86296 10.1649C3.42133 10.1344 2.2132 9.19029 1.79694 7.89078C2.00001 7.92122 2.20304 7.94153 2.41626 7.94153C2.71067 7.94153 3.00511 7.90091 3.2792 7.82988C1.77666 7.52528 0.649721 6.2055 0.649721 4.61158V4.57099C1.08625 4.81465 1.59391 4.96693 2.13195 4.98721C1.24869 4.39836 0.670034 3.3933 0.670034 2.25623C0.670034 1.6471 0.832441 1.08873 1.11672 0.601413C2.73095 2.59126 5.15736 3.89074 7.87816 4.03289C7.82741 3.78924 7.79694 3.53546 7.79694 3.28164C7.79694 1.47451 9.25888 0.00244141 11.0761 0.00244141C12.0203 0.00244141 12.8731 0.398381 13.4721 1.03798C14.2132 0.895851 14.9238 0.621725 15.5533 0.246099C15.3096 1.00754 14.7919 1.64714 14.1117 2.0532C14.7716 1.98217 15.4112 1.79939 16 1.5456C15.5534 2.19532 14.995 2.77398 14.3554 3.24102Z" fill="white" fill-opacity="0.5"/>
</svg>
