<svg width="40" height="35" viewBox="0 0 40 35" fill="none" xmlns="http://www.w3.org/2000/svg">
<path fill-rule="evenodd" clip-rule="evenodd" d="M17.1135 2.93452H16.9769C16.7669 2.92181 16.557 2.91672 16.347 2.91163H16.347H16.3268H15.8917C15.4945 2.91163 15.0897 2.92181 14.6875 2.94215C14.6572 2.93994 14.6267 2.93994 14.5964 2.94215C10.9521 3.14863 7.38159 4.05951 4.08036 5.62492L3.64778 5.83344V27.9746L4.65967 27.6313C5.54761 27.3261 6.49372 27.0515 7.47273 26.7972C10.1192 26.1178 12.8366 25.7567 15.5678 25.7216V28.6306C15.2061 28.6332 14.8545 28.6434 14.5028 28.6612H14.4193C12.3174 28.7765 10.2315 29.0967 8.19117 29.6173C5.60704 30.2643 3.11421 31.2357 0.771484 32.5086V4.11189C3.20457 2.69275 5.82521 1.62687 8.55545 0.945963C10.9526 0.327052 13.4168 0.00930695 15.8917 0H16.3192C16.8302 0.0127146 17.3285 0.0356008 17.7965 0.0712015C19.0296 0.157776 20.2527 0.352628 21.452 0.653528V3.51685C20.2873 3.24551 19.103 3.06695 17.9104 2.98284C17.8862 2.98079 17.862 2.97872 17.8377 2.97666C17.591 2.95561 17.3439 2.93452 17.1135 2.93452ZM22.1527 5.86138C22.7876 5.9097 23.4453 5.93259 24.1107 5.93259C26.7124 5.92307 29.303 5.59083 31.8238 4.94339C34.4067 4.29396 36.8985 3.32178 39.2409 2.04956V29.9402C36.8065 31.3585 34.1852 32.4243 31.4544 33.1061C29.0569 33.7227 26.5929 34.0395 24.1182 34.0496C22.2432 34.0647 20.3736 33.8443 18.5529 33.3935V5.32229C18.9829 5.42146 19.4256 5.51301 19.8759 5.58929C20.6146 5.7139 21.3937 5.80544 22.1527 5.86138ZM36.3469 6.07753L35.335 6.41828C34.4041 6.73106 33.4656 7.01078 32.522 7.25998C29.7748 7.96596 26.9513 8.3281 24.1157 8.33818C23.4555 8.33818 22.8483 8.32038 22.2614 8.28224L21.4545 8.22883V28.3178V31.0057L22.1476 31.0667C22.7901 31.1227 23.4529 31.1506 24.1208 31.1506C26.3543 31.1412 28.578 30.8533 30.7411 30.2937C32.5222 29.8469 34.2551 29.2243 35.9144 28.4348L36.3469 28.2263V6.07753Z" fill="#AFB1B8"/>
</svg>
